<?xml version="1.0" encoding="UTF-8"?>
<svg version="1.1" xmlns="http://www.w3.org/2000/svg" width="420" height="350">
<path d="M0 0 C138.6 0 277.2 0 420 0 C420 115.5 420 231 420 350 C281.4 350 142.8 350 0 350 C0 234.5 0 119 0 0 Z " fill="#FAFCFB" transform="translate(0,0)"/>
<path d="M0 0 C6.19032242 2.50900021 11.85055143 5.55055478 17.58056641 8.96972656 C24.64797897 13.09068907 31.76503181 16.99380351 39.14306641 20.53222656 C39.92544678 20.91467529 40.70782715 21.29712402 41.51391602 21.69116211 C45.3485984 23.4924731 48.30233403 24.79898042 52.64306641 24.28222656 C49.91942416 22.46646507 47.39929892 21.21007221 44.41650391 19.89160156 C43.38396484 19.42882812 42.35142578 18.96605469 41.28759766 18.48925781 C39.13326938 17.52920471 36.97705616 16.57336857 34.81884766 15.62207031 C28.32001766 12.69880478 22.4185854 9.46354786 16.64306641 5.28222656 C18.34533049 2.91385914 19.71412492 1.47202993 22.63134766 0.87597656 C34.10315336 0.4004613 42.89578803 8.84462281 51.64306641 15.28222656 C51.64306641 14.29222656 51.64306641 13.30222656 51.64306641 12.28222656 C55.6684568 10.26953137 60.27668377 10.68918924 64.64306641 11.28222656 C68.07418224 12.78298173 70.7630372 14.91015592 73.64306641 17.28222656 C74.63435547 18.075 75.62564453 18.86777344 76.64697266 19.68457031 C79.33529562 21.85788888 81.99760784 24.05707449 84.64306641 26.28222656 C85.10712891 25.32316406 85.10712891 25.32316406 85.58056641 24.34472656 C86.64306641 22.28222656 86.64306641 22.28222656 87.64306641 21.28222656 C95.0217588 20.65691365 98.06775343 22.30496594 103.79150391 27.07128906 C105.78485367 28.77088202 107.75984962 30.46114637 109.64306641 32.28222656 C109.64306641 32.61222656 109.64306641 32.94222656 109.64306641 33.28222656 C106.01306641 33.61222656 102.38306641 33.94222656 98.64306641 34.28222656 C102.28910409 34.33659995 105.9343159 34.37608104 109.58056641 34.40722656 C110.60214844 34.42398438 111.62373047 34.44074219 112.67626953 34.45800781 C121.26261041 34.51287261 128.56536998 33.18191246 136.64306641 30.28222656 C136.07201172 30.08701416 135.50095703 29.89180176 134.91259766 29.69067383 C123.48885126 25.77567966 112.09599617 21.7796291 100.76806641 17.59472656 C99.78966797 17.23902588 98.81126953 16.8833252 97.80322266 16.5168457 C81.99612223 10.62315635 81.99612223 10.62315635 79.39746094 6.12719727 C79.14851074 5.51835693 78.89956055 4.9095166 78.64306641 4.28222656 C82.63194212 0.79382991 85.38295114 0.90927276 90.50732422 1.05175781 C94.86328986 1.37190976 99.13506252 2.01094245 103.4453125 2.70654297 C126.97693982 6.498232 148.65594071 6.35675045 171.86743164 1.44165039 C188.0637499 -1.96130221 203.53737797 -2.72724533 218.36181641 5.85644531 C220.64383339 7.53278998 222.63371514 9.28904714 224.64306641 11.28222656 C225.31466797 11.92804688 225.98626953 12.57386719 226.67822266 13.23925781 C234.68182215 21.55128118 244.64306641 36.23885695 244.64306641 48.28222656 C244.01029785 48.32186523 243.3775293 48.36150391 242.72558594 48.40234375 C214.53433996 50.24810809 189.9311826 58.17057371 163.44384766 67.45019531 C132.91495239 78.07535435 105.70608405 78.14589549 76.14306641 64.15722656 C59.06721846 55.78001645 42.87339172 45.96543246 26.87890625 35.70507812 C23.99959691 33.8727332 21.09460561 32.0838087 18.18847656 30.29443359 C11.09973424 25.92002469 4.28641728 21.31678876 -2.35693359 16.28222656 C-3.52063463 15.42236216 -4.68471793 14.56301492 -5.84912109 13.70410156 C-7.03981929 12.81427089 -8.22993207 11.92365628 -9.41943359 11.03222656 C-9.98041748 10.61972656 -10.54140137 10.20722656 -11.11938477 9.78222656 C-14.03969677 7.56579385 -16.07157419 5.76307563 -17.35693359 2.28222656 C-12.21777083 -1.82910365 -6.12943397 -1.86663931 0 0 Z " fill="#222021" transform="translate(96.35693359375,137.7177734375)"/>
<path d="M0 0 C8.14139715 3.03577521 15.04642975 8.88248481 22 14 C22 13.01 22 12.02 22 11 C26.02539039 8.9873048 30.63361736 9.40696268 35 10 C38.43111583 11.50075517 41.1199708 13.62792936 44 16 C44.99128906 16.79277344 45.98257813 17.58554688 47.00390625 18.40234375 C49.69222921 20.57566231 52.35454143 22.77484793 55 25 C55.4640625 24.0409375 55.4640625 24.0409375 55.9375 23.0625 C57 21 57 21 58 20 C65.3786924 19.37468708 68.42468702 21.02273937 74.1484375 25.7890625 C76.14178727 27.48865546 78.11678321 29.17891981 80 31 C80 31.33 80 31.66 80 32 C76.37 32.33 72.74 32.66 69 33 C73.29 33.33 77.58 33.66 82 34 C82 34.33 82 34.66 82 35 C60.50250331 35.48981638 41.12768069 32.75707244 21 25 C21.66 24.01 22.32 23.02 23 22 C22.43192627 21.764021 21.86385254 21.52804199 21.27856445 21.28491211 C-9.31971995 8.52042007 -9.31971995 8.52042007 -13 3 C-9.24616685 -0.91704328 -5.06424918 -0.71863302 0 0 Z " fill="#E5E6E6" transform="translate(126,139)"/>
<path d="M0 0 C6.15208318 2.41743055 11.22001439 6.18797756 16.375 10.25 C17.11161865 10.82194092 17.8482373 11.39388184 18.60717773 11.9831543 C20.74489399 13.64702145 22.87431656 15.32079773 25 17 C25.5779834 17.45648926 26.1559668 17.91297852 26.75146484 18.38330078 C29.51485011 20.57187445 32.26517198 22.7758524 35 25 C33 26 33 26 31.05493164 25.43017578 C30.26465576 25.1051709 29.47437988 24.78016602 28.66015625 24.4453125 C27.77062256 24.08211914 26.88108887 23.71892578 25.96459961 23.34472656 C25.00690674 22.9422168 24.04921387 22.53970703 23.0625 22.125 C22.0835376 21.71733398 21.1045752 21.30966797 20.09594727 20.88964844 C13.49612512 18.11402728 6.93747384 15.25216376 0.4375 12.25 C-0.34036865 11.89824707 -1.1182373 11.54649414 -1.91967773 11.18408203 C-6.49058402 9.02516354 -9.64824097 6.79644785 -13 3 C-9.35178317 -0.80683495 -4.9444641 -0.94004033 0 0 Z " fill="#272626" transform="translate(126,139)"/>
<path d="M0 0 C0.99 0.33 1.98 0.66 3 1 C2.01 2.32 1.02 3.64 0 5 C6.89826185 9.35263176 13.9160544 12.961975 21.375 16.25 C23.29971861 17.10883858 25.22420712 17.96819308 27.1484375 18.828125 C27.98552246 19.1984082 28.82260742 19.56869141 29.68505859 19.95019531 C31.81824981 20.91757796 33.91308759 21.93702591 36 23 C35.67 23.66 35.34 24.32 35 25 C28.67700465 24.51163857 23.78395484 22.33599714 18.125 19.5625 C17.21403564 19.12309082 16.30307129 18.68368164 15.36450195 18.23095703 C6.63058003 13.94948865 -1.72265812 9.09875581 -10 4 C-8.68 3.34 -7.36 2.68 -6 2 C-5.01 2.66 -4.02 3.32 -3 4 C-3 3.34 -3 2.68 -3 2 C-2.01 2 -1.02 2 0 2 C0 1.34 0 0.68 0 0 Z " fill="#E8E8E8" transform="translate(114,138)"/>
<path d="M0 0 C7.04764856 -0.71135144 11.81433592 -0.38869344 17.52734375 3.9453125 C18.34332031 4.62335938 19.15929687 5.30140625 20 6 C20.80268311 6.6511377 20.80268311 6.6511377 21.62158203 7.31542969 C32.35108772 16.02663159 32.35108772 16.02663159 35 20 C33.64631959 20.05525226 32.29193765 20.09334369 30.9375 20.125 C29.80634766 20.15980469 29.80634766 20.15980469 28.65234375 20.1953125 C21.6131308 19.67696103 17.18105948 17.06003631 11.9375 12.6875 C11.35162109 12.21376953 10.76574219 11.74003906 10.16210938 11.25195312 C8.43061823 9.84715842 6.71324748 8.42696585 5 7 C4.41621582 6.5148291 3.83243164 6.0296582 3.23095703 5.52978516 C1.81920368 4.35491151 0.40938914 3.17770874 -1 2 C-0.67 1.34 -0.34 0.68 0 0 Z " fill="#242323" transform="translate(150,149)"/>
<path d="M0 0 C2.66694948 -0.05455124 5.33275498 -0.09393392 8 -0.125 C8.74378906 -0.14175781 9.48757813 -0.15851563 10.25390625 -0.17578125 C15.50548443 -0.22144715 19.9516946 0.54287549 25 2 C24.01 2.495 24.01 2.495 23 3 C23 3.66 23 4.32 23 5 C20.03 4.67 17.06 4.34 14 4 C14.33 3.34 14.66 2.68 15 2 C10.05 1.67 5.1 1.34 0 1 C0 0.67 0 0.34 0 0 Z " fill="#504F50" transform="translate(279,137)"/>
</svg>
